<?xml version="1.0" standalone="no"?>
<!DOCTYPE svg PUBLIC "-//W3C//DTD SVG 20010904//EN"
 "http://www.w3.org/TR/2001/REC-SVG-20010904/DTD/svg10.dtd">
<svg version="1.0" xmlns="http://www.w3.org/2000/svg"
 width="500.000000pt" height="500.000000pt" viewBox="0 0 500.000000 500.000000"
 preserveAspectRatio="xMidYMid meet">

<g transform="translate(0.000000,500.000000) scale(0.100000,-0.100000)"
fill="#000000" stroke="none">
<path d="M0 2500 l0 -2500 2500 0 2500 0 0 2500 0 2500 -2500 0 -2500 0 0
-2500z m2800 2286 c251 -34 492 -107 715 -215 584 -285 1009 -786 1199 -1412
68 -227 79 -304 84 -611 4 -313 -5 -407 -63 -635 -228 -890 -981 -1564 -1894
-1698 -172 -25 -623 -17 -775 14 -991 203 -1718 977 -1852 1971 -21 158 -18
465 5 627 150 1017 929 1799 1945 1953 153 23 484 26 636 6z"/>
<path d="M3557 3915 c-198 -38 -379 -142 -567 -328 -153 -150 -316 -370 -450
-604 -29 -51 -54 -93 -56 -93 -2 0 48 104 112 231 65 131 114 240 112 252 -4
30 -32 33 -67 8 -16 -12 -80 -33 -143 -47 -271 -62 -398 -106 -533 -187 -225
-133 -356 -323 -372 -537 -5 -79 13 -183 42 -240 23 -44 36 -36 20 11 -20 55
-19 172 1 240 38 128 142 290 249 387 163 149 395 255 588 269 42 3 77 3 77 0
0 -17 -85 -198 -220 -467 -188 -377 -217 -429 -244 -440 -11 -5 -66 -26 -121
-46 -129 -46 -409 -184 -549 -269 -315 -191 -576 -435 -637 -595 -49 -130 -1
-228 120 -245 108 -14 344 75 524 197 213 146 464 450 697 845 46 79 74 112
86 101 3 -3 -161 -391 -196 -464 -35 -71 -22 -94 50 -94 109 0 277 62 421 156
141 92 289 263 289 336 0 29 -31 58 -63 58 -34 0 -200 -93 -384 -216 l-181
-121 33 91 c37 103 103 258 113 268 4 4 54 16 112 28 591 119 1243 364 1560
588 276 195 366 431 244 639 -125 214 -409 337 -667 288z m290 -51 c225 -59
400 -263 378 -440 -22 -175 -210 -372 -520 -542 -266 -146 -676 -298 -1088
-402 -225 -56 -287 -68 -287 -54 0 3 31 72 68 153 274 590 656 1073 977 1233
147 74 317 93 472 52z m-1510 -1273 c-51 -105 -95 -186 -100 -182 -4 4 16 50
44 102 28 52 71 133 95 182 24 48 46 87 48 87 3 0 -37 -85 -87 -189z m-243
-283 c-48 -81 -261 -402 -316 -477 -83 -112 -272 -304 -373 -380 -95 -71 -290
-166 -382 -187 -85 -19 -131 -13 -170 20 -21 19 -26 31 -26 68 1 46 34 123 70
164 10 12 50 59 88 104 99 117 276 263 477 394 110 72 372 207 507 263 111 45
137 51 125 31z m572 -62 c19 -78 -137 -246 -312 -334 -74 -37 -165 -64 -201
-60 -25 3 -28 7 -24 33 6 55 29 82 138 162 113 83 288 198 326 213 41 16 66
12 73 -14z"/>
</g>
</svg>
